More info:


[img]http://img809.imageshack.us/img809/7720/yyxbt.jpg[/img]


[color=blue][size=5][b]The.Iron.Lady.2011.DVDScr.XVID.AC3.HQ.Hive-CM8[/b][/size][/color]


[b] Thx Hive

CM8 Doing It Right The First Time :D


Source: Target
thx

Encode:
well this screener needed a lot of work done.
It was very dark, colourless, audio was low and every 10mins the annoying watermark pops up.
fixed brightness, fixed colouring, fixed loudness of audio track, removed the watermark in
transitions scenes only so you wont see the watermark anymore, added sharpness and denoise.
looks like a proper dvdrip now, check pics and sample :D
added subs in srt
got very nice
enjoy
 
http://screenshotcomparison.com/comparison/106507

Video: 640x272 @bitrate 1300 2pass
Audio: English AC3 2.0 Stereo
Sample: Yes, included
Subs: Yes, English in srt /subs[/b]

 
http://www.imdb.com/title/tt1007029/


General
Complete name                  : The.Iron.Lady.2011.DVDScr.XVID.AC3.HQ.Hive-CM8.avi
Format                         : AVI
Format/Info                    : Audio Video Interleave
File size                      : 1.15 GiB
Duration                       : 1h 44mn
Overall bit rate               : 1 566 Kbps
Writing application            : Nandub v1.0rc2
Writing library                : Nandub build 1853/release

Video
ID                             : 0
Format                         : MPEG-4 Visual
Format profile                 : Advanced Simple@L5
Format settings, BVOP          : 2
Format settings, QPel          : Yes
Format settings, GMC           : No warppoints
Format settings, Matrix        : Default (H.263)
Muxing mode                    : Packed bitstream
Codec ID                       : XVID
Codec ID/Hint                  : XviD
Duration                       : 1h 44mn
Bit rate                       : 1 300 Kbps
Width                          : 640 pixels
Height                         : 272 pixels
Display aspect ratio           : 2.35:1
Frame rate                     : 23.976 fps
Color space                    : YUV
Chroma subsampling             : 4:2:0
Bit depth                      : 8 bits
Scan type                      : Progressive
Compression mode               : Lossy
Bits/(Pixel*Frame)             : 0.312
Stream size                    : 976 MiB (83%)
Writing library                : XviD 1.2.1 (UTC 2008-12-04)

Audio
ID                             : 1
Format                         : AC-3
Format/Info                    : Audio Coding 3
Mode extension                 : CM (complete main)
Codec ID                       : 2000
Duration                       : 1h 44mn
Bit rate mode                  : Constant
Bit rate                       : 256 Kbps
Channel(s)                     : 2 channels
Channel positions              : Front: L R
Sampling rate                  : 48.0 KHz
Bit depth                      : 16 bits
Compression mode               : Lossy
Stream size                    : 192 MiB (16%)
Alignment                      : Split accross interleaves
Interleave, duration           : 42 ms (1.00 video frame)
Interleave, preload duration   : 500 ms


Plot:
A look at the life of Margaret Thatcher, the former Prime Minister of
the United Kingdom, with a focus on the price she paid for power.


Cast:
Meryl Streep       ...    Margaret Thatcher
Jim Broadbent      ...    Denis Thatcher
Richard E. Grant   ...    Michael Heseltine
Alexandra Roach    ...    Young Margaret Thatcher


[img]http://img816.imageshack.us/img816/2966/iliill.png[/img]
[img]http://img714.imageshack.us/img714/1635/76474985.png[/img]
[img]http://img62.imageshack.us/img62/9498/iliiiililillillill.png[/img]
[img]http://img820.imageshack.us/img820/8564/iliiiilillillill.png[/img]
[img]http://img714.imageshack.us/img714/6717/iliiilillill.png[/img]
[img]http://img830.imageshack.us/img830/8643/iliiililll.png[/img]
[img]http://img46.imageshack.us/img46/3003/iliiilll.png[/img]
[img]http://img543.imageshack.us/img543/3284/iliiiillillill.png[/img]
[img]http://img29.imageshack.us/img29/4416/ilil.png[/img]




Greetz

ViSiON,SPK,SceneLovers,PRESTiGE,SANTi,3LT0N,YanKeeS,COPYxRIGHT,THC,T0XiC
D2U,LKRG,Feel-Free,FLAWL3SS,WBZ,BHRG,26K,NOVA,SeToNeUp,TED,MAGNET,jtr
Unevano,Rapeseed,SAFC,goldadvance,KaN1vE,Pinnz,Wayne
Mr Hive,and most P2P groups
Great Work Guys :D

LOOKING FOR ANYTHING YOU WANT TO LOOK AND